<svg width="302" height="185" viewBox="0 0 302 185" fill="none" xmlns="http://www.w3.org/2000/svg">
<g filter="url(#filter0_di_14_16)">
<rect x="6" y="5" width="290" height="173" rx="14" fill="white"/>
<path d="M26.0235 133.282C25.243 133.282 24.8528 133.087 24.4625 132.892C24.2674 132.501 24.0723 132.111 24.0723 131.526V109.672C24.0723 109.086 24.2674 108.501 24.4625 108.306C24.8528 107.916 25.243 107.721 26.0235 107.721H35.1943C38.7065 107.721 41.2431 108.501 42.9993 109.867C44.5602 111.428 45.5359 113.574 45.5359 116.501C45.5359 119.428 44.7554 121.574 42.9993 123.135C41.4383 124.501 38.7065 125.282 35.1943 125.282H31.6821V131.331C31.6821 131.916 31.487 132.501 31.2918 132.696C30.9016 133.087 30.5113 133.087 29.7309 133.087H26.0235V133.282ZM34.6089 119.818C35.5846 119.818 36.365 119.623 36.9504 119.038C37.5358 118.452 37.7309 117.672 37.7309 116.501C37.7309 115.33 37.5358 114.55 36.9504 113.965C36.365 113.379 35.5846 113.184 34.6089 113.184H31.6821V119.818H34.6089Z" fill="black"/>
<path d="M54.3164 133.867C51.9749 133.867 50.0237 133.087 48.6578 131.526C47.292 129.965 46.5115 127.818 46.5115 125.087C46.5115 122.94 46.9017 121.184 47.8773 119.623C48.853 118.062 50.2188 116.891 51.9749 115.916C53.731 115.135 55.8774 114.55 58.0238 114.55C59.975 114.55 61.536 114.745 63.097 115.135C64.658 115.526 65.8287 116.111 67.1946 116.891V131.916C67.1946 132.306 67.1946 132.696 66.9995 132.892C66.8043 133.087 66.4141 133.087 66.0238 133.087H62.1214C61.9262 133.087 61.536 133.087 61.536 132.892C61.3409 132.696 61.3409 132.696 61.1457 132.501L60.5604 131.331C59.7799 132.111 58.9994 132.696 58.0238 133.087C57.0482 133.672 55.6823 133.867 54.3164 133.867ZM57.0482 128.794C58.0238 128.794 58.8043 128.599 59.3896 128.013C59.975 127.623 60.1701 126.843 60.1701 126.062V120.209C59.7799 120.013 58.9994 119.818 58.414 119.818C57.0481 119.818 56.0725 120.209 55.292 121.184C54.5115 122.16 54.1213 123.33 54.1213 125.087C54.1213 127.428 55.0969 128.794 57.0482 128.794Z" fill="black"/>
<path d="M72.4627 133.282C71.6822 133.282 71.292 133.087 70.9017 132.891C70.5115 132.501 70.5115 132.111 70.5115 131.526V116.306C70.5115 115.916 70.5115 115.525 70.7066 115.33C70.9017 115.135 71.292 115.135 71.6822 115.135H75.5847C75.9749 115.135 76.17 115.135 76.17 115.33C76.3652 115.33 76.3652 115.525 76.5603 115.721L76.7554 116.891C77.5359 116.111 78.3164 115.721 79.4872 115.33C80.6579 114.94 81.8286 114.745 83.3896 114.745C85.3409 114.745 87.097 115.33 88.2677 116.501C89.4385 117.672 90.219 119.233 90.219 121.574V131.526C90.219 132.111 90.0238 132.696 89.8287 132.891C89.6336 133.282 89.0482 133.282 88.2677 133.282H84.5604C83.7799 133.282 83.3896 133.087 82.9994 132.891C82.6091 132.501 82.6091 132.111 82.6091 131.526V121.965C82.6091 121.184 82.414 120.599 82.0238 120.404C81.6335 120.013 81.2433 119.818 80.4628 119.818C79.6823 119.818 79.0969 120.013 78.7067 120.404C78.3164 120.794 78.1213 121.379 78.1213 121.965V131.33C78.1213 131.916 77.9262 132.501 77.731 132.696C77.5359 133.087 76.9505 133.087 76.17 133.087H72.4627V133.282Z" fill="black"/>
<path d="M103.488 133.867C99.9753 133.867 97.2436 133.087 95.2923 131.33C93.3411 129.77 92.3655 127.428 92.3655 124.306C92.3655 122.355 92.7557 120.794 93.7313 119.233C94.5118 117.867 95.8777 116.696 97.4387 115.916C99.1948 115.135 101.146 114.745 103.292 114.745C105.049 114.745 106.414 114.94 107.585 115.33C108.756 115.721 109.927 116.111 110.707 116.891C110.902 117.086 111.097 117.282 111.097 117.477C111.097 117.672 110.902 117.867 110.707 118.257L109.146 120.989C108.951 121.379 108.756 121.574 108.561 121.574C108.366 121.574 108.17 121.379 107.78 121.184C107.195 120.794 106.414 120.404 105.829 120.208C105.244 120.013 104.463 119.818 103.683 119.818C102.512 119.818 101.341 120.208 100.561 120.989C99.7802 121.769 99.3899 122.94 99.3899 124.306C99.3899 125.672 99.7802 126.843 100.561 127.623C101.341 128.404 102.317 128.794 103.683 128.794C104.463 128.794 105.244 128.599 105.829 128.404C106.414 128.209 107.195 127.818 107.78 127.428C108.17 127.233 108.366 127.038 108.561 127.038C108.756 127.038 108.951 127.233 109.146 127.623L110.902 130.55C111.097 130.745 111.097 130.94 111.097 131.135C111.097 131.33 110.902 131.526 110.707 131.721C109.731 132.306 108.561 132.891 107.195 133.282C106.609 133.672 105.244 133.867 103.488 133.867Z" fill="black"/>
<path d="M121.243 133.867C118.902 133.867 116.951 133.087 115.585 131.526C114.219 129.965 113.438 127.818 113.438 125.087C113.438 122.94 113.829 121.184 114.804 119.623C115.78 118.062 117.146 116.891 118.902 115.916C120.658 115.135 122.804 114.55 124.951 114.55C126.902 114.55 128.463 114.745 130.024 115.135C131.585 115.526 132.756 116.111 134.122 116.891V131.916C134.122 132.306 134.122 132.696 133.926 132.892C133.731 133.087 133.341 133.087 132.951 133.087H129.048C128.853 133.087 128.463 133.087 128.463 132.892C128.268 132.696 128.268 132.696 128.073 132.501L127.487 131.331C126.707 132.111 125.926 132.696 124.951 133.087C123.975 133.672 122.804 133.867 121.243 133.867ZM124.17 128.794C125.146 128.794 125.926 128.599 126.512 128.013C127.097 127.623 127.292 126.843 127.292 126.062V120.209C126.902 120.013 126.122 119.818 125.536 119.818C124.17 119.818 123.195 120.209 122.414 121.184C121.634 122.16 121.243 123.33 121.243 125.087C121.048 127.428 122.024 128.794 124.17 128.794Z" fill="black"/>
<path d="M157.927 131.916C158.123 132.111 158.123 132.306 158.123 132.501C158.123 132.696 158.123 132.892 157.927 133.087C157.732 133.282 157.537 133.282 157.342 133.282H151.488C151.098 133.282 150.903 133.282 150.708 133.282C150.513 133.282 150.318 133.087 150.122 132.892L145.049 125.867V131.331C145.049 131.916 144.854 132.501 144.659 132.696C144.269 133.087 143.879 133.087 143.098 133.087H139.391C138.61 133.087 138.22 132.892 137.83 132.696C137.635 132.306 137.439 131.916 137.439 131.331V109.672C137.439 109.086 137.635 108.501 137.83 108.306C138.22 107.916 138.61 107.721 139.391 107.721H143.098C143.879 107.721 144.269 107.916 144.659 108.306C145.049 108.696 145.049 109.086 145.049 109.672V122.16L149.927 115.721C150.122 115.526 150.318 115.33 150.513 115.33C150.708 115.33 150.903 115.135 151.293 115.135H157.147C157.342 115.135 157.537 115.135 157.732 115.33C157.927 115.526 157.927 115.721 157.927 115.916C157.927 116.111 157.927 116.306 157.732 116.501L151.293 123.916L157.927 131.916Z" fill="black"/>
<path d="M170.024 133.867C167.878 133.867 166.122 133.477 164.366 132.892C162.805 132.111 161.439 131.136 160.463 129.77C159.487 128.404 159.097 126.648 159.097 124.696C159.097 121.575 160.073 119.038 161.829 117.477C163.585 115.721 166.317 114.94 169.634 114.94C172.951 114.94 175.488 115.721 177.049 117.477C178.805 119.038 179.585 121.379 179.585 124.306C179.585 125.477 179 126.257 178.024 126.257H166.317C166.317 127.428 166.707 128.209 167.487 128.794C168.268 129.379 169.634 129.575 171.195 129.575C172.17 129.575 173.146 129.575 173.731 129.379C174.512 129.184 175.097 128.794 175.878 128.599C176.268 128.404 176.463 128.404 176.463 128.404C176.658 128.404 176.853 128.599 177.049 128.794L178.414 131.136C178.61 131.331 178.61 131.526 178.61 131.721C178.61 131.916 178.414 132.111 178.219 132.306C177.244 132.892 176.073 133.477 174.707 133.867C173.146 133.672 171.78 133.867 170.024 133.867ZM172.951 122.16C172.951 121.184 172.756 120.404 172.17 120.014C171.585 119.428 170.805 119.233 169.634 119.233C168.463 119.233 167.683 119.428 167.097 120.014C166.512 120.599 166.317 121.184 166.317 122.16H172.951Z" fill="black"/>
<path d="M192.659 133.867C190.512 133.867 188.561 133.672 186.61 133.282C184.659 132.892 183.293 132.111 182.122 131.331C181.732 131.135 181.537 130.745 181.537 130.55C181.537 130.355 181.537 130.16 181.732 129.965L183.488 127.038C183.683 126.648 183.878 126.648 184.073 126.648C184.268 126.648 184.463 126.648 184.659 126.843C185.634 127.428 186.61 127.818 187.781 128.209C188.951 128.599 190.122 128.794 191.293 128.794C192.464 128.794 193.244 128.599 193.829 128.209C194.415 127.818 194.61 127.233 194.61 126.453C194.61 125.672 194.22 125.087 193.634 124.696C193.049 124.306 191.878 123.721 190.122 123.135C187.585 122.16 185.634 121.184 184.268 120.013C182.902 118.843 182.122 117.087 182.122 115.135C182.122 112.599 183.098 110.843 184.854 109.477C186.61 108.111 188.951 107.526 191.878 107.526C194.025 107.526 195.781 107.721 197.147 108.111C198.707 108.501 199.878 109.086 200.854 109.672C201.244 110.062 201.439 110.257 201.439 110.647C201.439 110.843 201.439 111.038 201.244 111.233L199.488 114.16C199.293 114.55 199.098 114.55 198.903 114.55C198.708 114.55 198.512 114.55 198.317 114.355C196.951 113.379 195.195 112.989 193.049 112.989C191.878 112.989 191.098 113.184 190.512 113.574C189.927 113.965 189.732 114.55 189.732 115.33C189.732 115.916 189.927 116.306 190.122 116.696C190.512 117.087 190.903 117.282 191.293 117.672C191.878 117.867 192.659 118.257 193.634 118.648L194.415 118.843C196.171 119.623 197.732 120.209 198.708 120.989C199.878 121.574 200.659 122.55 201.244 123.526C201.829 124.501 202.025 125.672 202.025 127.038C202.025 129.184 201.244 131.135 199.488 132.306C198.317 133.087 195.781 133.867 192.659 133.867Z" fill="black"/>
<path d="M210.415 133.282C210.025 133.282 209.83 133.282 209.635 133.087C209.44 132.892 209.245 132.696 209.245 132.306L204.366 116.111C204.366 115.916 204.366 115.916 204.366 115.721C204.366 115.33 204.562 115.135 205.147 115.135H210.025C210.415 115.135 210.61 115.135 210.806 115.33C211.001 115.526 211.001 115.526 211.196 115.916L213.147 124.501L215.684 117.672C215.879 117.282 215.879 117.087 216.074 117.087C216.269 116.891 216.464 116.891 216.854 116.891H219.196C219.586 116.891 219.781 116.891 219.976 117.087C220.171 117.282 220.171 117.477 220.367 117.672L222.903 124.501L225.05 115.916C225.05 115.721 225.245 115.526 225.44 115.33C225.635 115.135 225.83 115.135 226.025 115.135H231.098C231.684 115.135 231.879 115.33 231.879 115.721C231.879 115.721 231.879 115.916 231.879 116.111L227.001 132.306C226.806 132.696 226.806 132.892 226.611 133.087C226.415 133.282 226.22 133.282 225.83 133.282H222.123C221.732 133.282 221.537 133.282 221.342 133.087C221.147 132.892 220.952 132.696 220.952 132.306L218.415 125.477L215.879 132.306C215.684 132.696 215.684 132.892 215.489 133.087C215.293 133.282 215.098 133.282 214.708 133.282H210.415Z" fill="black"/>
<path d="M240.855 133.867C238.513 133.867 236.562 133.087 235.196 131.526C233.83 129.965 233.05 127.818 233.05 125.087C233.05 122.94 233.44 121.184 234.416 119.623C235.391 118.062 236.757 116.891 238.513 115.916C240.269 115.135 242.416 114.55 244.562 114.55C246.513 114.55 248.074 114.745 249.635 115.135C251.196 115.526 252.367 116.111 253.733 116.891V131.916C253.733 132.306 253.733 132.696 253.538 132.892C253.343 133.087 252.952 133.087 252.562 133.087H248.66C248.465 133.087 248.269 133.087 248.074 132.892C247.879 132.696 247.879 132.696 247.684 132.501L247.099 131.331C246.318 132.111 245.538 132.696 244.562 133.087C243.586 133.672 242.416 133.867 240.855 133.867ZM243.782 128.794C244.757 128.794 245.538 128.599 246.123 128.013C246.708 127.623 246.904 126.843 246.904 126.062V120.209C246.513 120.013 245.733 119.818 245.147 119.818C243.782 119.818 242.806 120.209 242.025 121.184C241.245 122.16 240.855 123.33 240.855 125.087C240.66 127.428 241.635 128.794 243.782 128.794Z" fill="black"/>
<path d="M259.001 140.892C258.221 140.892 257.83 140.697 257.44 140.502C257.245 140.111 257.05 139.721 257.05 139.136V117.672C258.221 116.892 259.586 116.111 261.343 115.721C263.099 115.135 264.855 114.94 266.611 114.94C274.221 114.94 277.928 118.062 277.928 124.501C277.928 127.428 277.148 129.77 275.587 131.526C274.026 133.282 271.684 134.062 268.757 134.062C267.977 134.062 267.196 133.867 266.416 133.672C265.635 133.477 265.05 133.282 264.465 132.892V139.136C264.465 139.721 264.269 140.306 264.074 140.502C263.684 140.892 263.294 140.892 262.513 140.892H259.001ZM267.196 128.794C268.367 128.794 269.147 128.404 269.538 127.623C270.123 126.843 270.318 125.672 270.318 124.306C270.318 122.745 269.928 121.575 269.343 120.794C268.757 120.209 267.782 119.818 266.416 119.818C265.635 119.818 264.855 120.014 264.465 120.209V126.062C264.465 126.843 264.66 127.623 265.245 128.014C265.635 128.599 266.416 128.794 267.196 128.794Z" fill="black"/>
<path fill-rule="evenodd" clip-rule="evenodd" d="M135.781 49.7182C135 45.8158 138.122 42.1084 142.025 42.1084C145.537 42.1084 148.464 45.0353 148.464 48.5475V56.3524C149.439 56.3524 150.22 56.3524 151.195 56.3524C151.976 56.3524 152.951 56.3524 153.732 56.3524V48.5475C153.732 45.0353 156.659 42.1084 160.171 42.1084C164.073 42.1084 167.195 45.8158 166.415 49.7182L164.659 58.889C170.513 61.4256 175 65.9135 175 71.5721V74.8892C175 79.5721 171.878 83.4746 167.586 86.0112C163.293 88.7429 157.439 90.3039 151 90.3039C144.561 90.3039 138.707 88.7429 134.415 86.0112C130.122 83.4746 127 79.5721 127 74.8892V71.5721C127 65.9135 131.488 61.4256 137.342 58.889L135.781 49.7182ZM162.512 60.2549L164.464 49.5231C165.049 46.7914 162.903 44.2548 160.171 44.2548C157.634 44.2548 155.683 46.206 155.683 48.7426V58.6939C155.098 58.6939 154.317 58.4988 153.732 58.4988C152.951 58.4988 151.976 58.4988 151.195 58.4988C150.22 58.4988 149.439 58.4988 148.464 58.6939C147.878 58.6939 147.098 58.889 146.512 58.889V48.9377C146.512 46.4011 144.561 44.4499 142.025 44.4499C139.293 44.4499 137.146 46.9865 137.732 49.7182L139.683 60.6451C133.439 62.9866 129.146 67.2793 129.146 72.1574V75.4745C129.146 82.8892 138.903 88.9381 151 88.9381C163.098 88.9381 172.854 82.8892 172.854 75.4745V72.1574C173.049 66.8891 168.756 62.5964 162.512 60.2549Z" fill="#633001"/>
<path d="M173.049 75.0842C173.049 82.4989 163.293 88.5477 151.195 88.5477C139.097 88.5477 129.341 82.4989 129.341 75.0842V71.7671H173.244V75.0842H173.049Z" fill="#FEDC90"/>
<path fill-rule="evenodd" clip-rule="evenodd" d="M137.732 49.3279C137.146 46.5962 139.293 44.0596 142.024 44.0596C144.561 44.0596 146.512 46.0108 146.512 48.5474V58.6938C148.073 58.4987 149.634 58.3036 151.195 58.3036C152.756 58.3036 154.317 58.4987 155.683 58.4987V48.5474C155.683 46.0108 157.634 44.0596 160.171 44.0596C162.903 44.0596 165.049 46.5962 164.464 49.3279L162.512 60.0597C168.951 62.4012 173.244 66.6939 173.244 71.572C173.244 78.9867 163.488 85.0355 151.39 85.0355C139.293 85.0355 129.536 78.9867 129.536 71.572C129.536 66.6939 133.829 62.4012 140.073 60.0597L137.732 49.3279Z" fill="#D1884F"/>
<path d="M145.146 70.7916C145.146 72.7428 143.976 74.4989 142.805 74.4989C141.634 74.4989 140.463 72.9379 140.463 70.7916C140.463 68.8403 141.634 67.0842 142.805 67.0842C143.976 67.0842 145.146 68.6452 145.146 70.7916Z" fill="#633001"/>
<path d="M161.927 70.7916C161.927 72.7428 160.756 74.4989 159.586 74.4989C158.22 74.4989 157.244 72.9379 157.244 70.7916C157.244 68.8403 158.415 67.0842 159.586 67.0842C160.756 67.0842 161.927 68.6452 161.927 70.7916Z" fill="#633001"/>
</g>
<defs>
<filter id="filter0_di_14_16" x="0" y="0" width="302" height="185" filterUnits="userSpaceOnUse" color-interpolation-filters="sRGB">
<feFlood flood-opacity="0" result="BackgroundImageFix"/>
<feColorMatrix in="SourceAlpha" type="matrix" values="0 0 0 0 0 0 0 0 0 0 0 0 0 0 0 0 0 0 127 0" result="hardAlpha"/>
<feOffset dy="1"/>
<feGaussianBlur stdDeviation="3"/>
<feComposite in2="hardAlpha" operator="out"/>
<feColorMatrix type="matrix" values="0 0 0 0 0 0 0 0 0 0 0 0 0 0 0 0 0 0 0.25 0"/>
<feBlend mode="normal" in2="BackgroundImageFix" result="effect1_dropShadow_14_16"/>
<feBlend mode="normal" in="SourceGraphic" in2="effect1_dropShadow_14_16" result="shape"/>
<feColorMatrix in="SourceAlpha" type="matrix" values="0 0 0 0 0 0 0 0 0 0 0 0 0 0 0 0 0 0 127 0" result="hardAlpha"/>
<feOffset dx="-1" dy="-1"/>
<feGaussianBlur stdDeviation="2.5"/>
<feComposite in2="hardAlpha" operator="arithmetic" k2="-1" k3="1"/>
<feColorMatrix type="matrix" values="0 0 0 0 0 0 0 0 0 0 0 0 0 0 0 0 0 0 0.15 0"/>
<feBlend mode="normal" in2="shape" result="effect2_innerShadow_14_16"/>
</filter>
</defs>
</svg>
