<?xml version="1.0" encoding="UTF-8"?>
<!DOCTYPE svg PUBLIC "-//W3C//DTD SVG 1.1//EN" "http://www.w3.org/Graphics/SVG/1.1/DTD/svg11.dtd">
<!-- Creator: CorelDRAW X7 -->
<svg xmlns="http://www.w3.org/2000/svg" xml:space="preserve" width="2.22189in" height="0.890488in" version="1.1" style="shape-rendering:geometricPrecision; text-rendering:geometricPrecision; image-rendering:optimizeQuality; fill-rule:evenodd; clip-rule:evenodd"
viewBox="0 0 2222 890"
 xmlns:xlink="http://www.w3.org/1999/xlink">
 <defs>
  <style type="text/css">
   <![CDATA[
    .fil0 {fill:#8D298B}
    .fil8 {fill:#9D9AE0}
    .fil3 {fill:#B079B0}
    .fil7 {fill:#B6B4E8}
    .fil13 {fill:#BE360D}
    .fil5 {fill:#D2D1F1}
    .fil12 {fill:#DB5B0D}
    .fil6 {fill:#DDDCF3}
    .fil11 {fill:#E07726}
    .fil10 {fill:#F7A920}
    .fil9 {fill:#FFC036}
    .fil4 {fill:#5D2CA5;fill-rule:nonzero}
    .fil1 {fill:url(#id0)}
    .fil2 {fill:url(#id1)}
   ]]>
  </style>
  <linearGradient id="id0" gradientUnits="userSpaceOnUse" x1="1155.52" y1="638.064" x2="1062.21" y2="709.088">
   <stop offset="0" style="stop-opacity:1; stop-color:#8D298B"/>
   <stop offset="0.180392" style="stop-opacity:1; stop-color:#922A87"/>
   <stop offset="1" style="stop-opacity:1; stop-color:#5D2CA5"/>
  </linearGradient>
  <radialGradient id="id1" gradientUnits="userSpaceOnUse" gradientTransform="matrix(0.18516 1.9856 -2.0136 0.187757 1530 -924)" cx="666.017" cy="490.399" r="1676.27" fx="666.017" fy="490.399">
   <stop offset="0" style="stop-opacity:1; stop-color:#8D298B"/>
   <stop offset="1" style="stop-opacity:1; stop-color:#8D298B"/>
  </radialGradient>
 </defs>
 <g id="Layer_x0020_1">
  <metadata id="CorelCorpID_0Corel-Layer"/>
  <g id="_2226189636048">
   <polygon class="fil0" points="1897,572 1828,572 1828,813 1790,813 1790,572 1722,572 1722,534 1897,534 "/>
   <polygon class="fil0" points="1702,813 1537,631 1537,813 1499,813 1499,534 1664,714 1664,534 1702,534 "/>
   <path class="fil0" d="M1374 813c-29,0 -54,-10 -75,-31 -20,-20 -30,-45 -30,-74l0 -174 38 0 0 174c0,19 6,34 19,47 14,13 29,20 48,20 18,0 34,-7 47,-20 13,-13 19,-28 19,-47l0 -174 38 0 0 174c0,29 -10,54 -30,74 -21,21 -45,31 -74,31z"/>
   <path class="fil1" d="M1109 813c-39,0 -71,-14 -99,-41 -27,-27 -41,-60 -41,-99 0,-38 14,-71 41,-98 7,-6 13,-12 20,-17 31,45 69,112 117,212 0,0 -20,-107 -81,-230 14,-4 28,-6 43,-6 38,0 71,14 99,41 27,27 40,60 40,98 0,39 -13,72 -40,99 -28,27 -61,41 -99,41z"/>
   <path class="fil2" d="M649 551c50,-4 19,184 55,238 7,12 19,22 31,28 3,-3 6,-6 8,-9 7,-10 14,-19 19,-29 -69,-16 17,-389 -117,-307 -125,75 -130,392 -320,415 48,11 94,-5 132,-35 38,-30 65,-73 85,-117 20,-44 73,-182 107,-184z"/>
   <path class="fil3" d="M1065 520c-53,-106 -121,-189 -168,-97 -73,143 -79,266 -105,322 -5,14 -19,45 -41,74 -1,1 -1,2 -2,3 7,1 14,1 22,-1 22,-4 42,-20 54,-40 35,-59 56,-202 102,-292 21,-40 100,-47 220,281 0,0 -18,-123 -82,-250z"/>
   <path class="fil4" d="M84 225c-23,0 -43,-9 -60,-25 -16,-16 -24,-36 -24,-60 0,-23 8,-42 24,-59 17,-16 36,-24 60,-24l156 0 0 48 -156 0c-5,0 -10,0 -14,2 -5,2 -9,5 -12,8 -3,3 -6,7 -8,12 -2,4 -2,9 -2,13 0,10 3,19 10,26 7,7 15,11 26,11l71 0c24,0 44,8 60,25 17,16 25,36 25,59 0,23 -8,43 -25,59 -16,17 -36,25 -59,25l-156 0 0 -48 156 0c5,0 9,-1 14,-3 4,-2 8,-4 11,-7 4,-4 6,-7 8,-12 2,-4 3,-9 3,-14 0,-10 -4,-18 -11,-26 -7,-7 -15,-10 -25,-10l-72 0z"/>
   <path class="fil4" d="M401 249l85 0 -43 -84 -42 84zm109 48l-133 0 -24 48 -54 0 144 -288 145 288 -54 0 -24 -48z"/>
   <polygon class="fil4" points="862,57 862,105 718,105 718,200 862,200 862,249 718,249 718,345 671,345 671,57 "/>
   <polygon class="fil4" points="1138,57 1138,105 993,105 993,200 1138,200 1138,249 993,249 993,345 946,345 946,57 "/>
   <path class="fil4" d="M1365 105l-97 0 0 95 97 1c13,0 24,-5 33,-14 10,-10 15,-21 15,-35 0,-13 -5,-24 -15,-33 -9,-10 -20,-14 -33,-14zm40 240l-55 -96 -82 0 0 96 -47 0 0 -288 144 0c26,0 49,9 68,28 18,19 28,41 28,67 0,20 -6,39 -17,55 -11,16 -26,28 -43,34l60 104 -56 0z"/>
   <path class="fil4" d="M1711 0c54,0 100,19 138,58 39,38 58,84 58,138 0,54 -19,100 -58,138 -38,39 -84,58 -138,58 -54,0 -100,-19 -138,-58 -39,-38 -58,-84 -58,-138 0,-54 19,-100 58,-138 37,-39 83,-58 138,-58z"/>
   <polygon class="fil4" points="1982,56 2174,229 2174,56 2222,56 2222,344 2222,344 2222,345 2030,172 2030,344 1982,344 "/>
   <path class="fil5" d="M1602 201c-2,1 -4,1 -6,2 -2,1 -3,2 -5,3 -15,7 -27,19 -37,31 -2,4 -4,7 -6,10 -4,7 -3,6 0,11 5,9 15,22 23,28l9 7c17,12 30,15 51,17 6,1 12,0 16,0 4,13 14,25 24,33 7,5 33,19 40,19 6,0 24,-9 30,-13 14,-8 30,-23 33,-39 3,-16 3,-23 -2,-37 -4,-9 -11,-21 -17,-27 -3,1 -6,4 -10,5 -4,2 -8,3 -13,2 -2,2 -30,1 -36,1 -21,0 -37,-9 -46,-27 -5,-11 -5,-19 -5,-32 -8,0 -15,0 -23,1 -7,1 -14,4 -20,5z"/>
   <path class="fil6" d="M1711 362c-5,0 -23,-9 -30,-13 -13,-8 -30,-23 -33,-39 -3,-16 -3,-23 3,-37 3,-9 11,-21 16,-27 3,1 7,4 10,5 4,2 9,3 13,2 2,1 12,2 21,1l0 108z"/>
   <path class="fil7" d="M1755 246c6,6 13,18 17,27 5,14 5,21 2,37 5,0 11,1 17,0 15,-1 28,-4 40,-10 10,-5 13,-8 20,-14 9,-6 18,-18 23,-28 4,-5 4,-5 1,-11 -12,-19 -28,-35 -49,-44 -2,-1 -4,-1 -6,-2 -6,-1 -12,-4 -20,-5 -7,-1 -15,-1 -23,-1 0,13 0,22 -5,32 -6,13 -12,15 -17,19z"/>
   <path class="fil7" d="M1602 201c6,-1 13,-4 20,-5 8,-1 15,-1 23,-1l0 -9c17,-2 39,-1 51,11 2,2 3,3 5,4 -6,-25 -13,-39 -27,-54l-20 -22c-5,-7 -7,-7 -14,-17 -1,-2 -2,-5 -4,-6 -12,-3 -28,0 -37,3 -10,2 -9,2 -11,10 -7,20 -5,38 0,57 2,6 4,10 6,15l8 14z"/>
   <path class="fil8" d="M1787 102c-2,1 -2,2 -4,6 -8,12 -16,18 -23,27 -2,2 -3,3 -5,6 -16,17 -29,34 -32,59 3,-2 7,-9 21,-13 7,-2 25,-2 33,-1l0 9c8,0 16,0 23,1 8,1 14,4 20,5 3,-5 6,-9 8,-14 10,-19 14,-48 7,-70 -3,-10 -2,-9 -10,-12 -6,-2 -30,-7 -38,-3z"/>
   <path class="fil9" d="M1645 195c0,13 0,21 5,32 9,18 25,27 46,27 6,0 34,1 36,-1 -4,-1 -16,0 -21,0 0,-10 0,-19 -1,-29 0,-9 -6,-17 -9,-23 -2,-1 -3,-2 -5,-4 -12,-12 -34,-13 -51,-11l0 9z"/>
   <path class="fil10" d="M1723 200l-1 1 -1 1c-1,2 -2,3 -3,5 -1,2 -2,3 -3,5 -3,6 -2,6 -3,9 -1,3 1,3 -2,3l1 30c14,1 32,1 44,-8 4,-2 11,-6 17,-19 5,-10 5,-19 5,-32l0 -9c-8,-1 -26,-1 -33,1 -14,4 -18,11 -21,13z"/>
   <path class="fil7" d="M1656 95c1,5 22,28 25,30 5,5 17,20 21,26 1,1 1,2 1,2l3 3c-1,-9 5,-22 5,-30l0 -79c-3,2 -8,2 -18,7 -5,3 -12,7 -15,11 -6,5 -8,6 -13,13 -2,3 -3,5 -5,8 -2,3 -3,6 -4,9z"/>
   <path class="fil11" d="M1636 102c2,1 3,4 4,6 7,10 9,10 14,17l20 22c14,15 21,29 27,54 3,6 9,14 9,23 3,0 1,0 2,-3 2,-6 2,-9 6,-14 1,-2 2,-3 3,-5 -2,-2 -2,-9 -3,-13 -1,-4 -2,-8 -3,-12 -2,-4 -9,-20 -9,-21l-3 -3c0,0 0,-1 -1,-2 -4,-6 -16,-21 -21,-26 -3,-2 -24,-25 -25,-30 -4,-4 -7,-14 -7,-19 -1,-9 4,-7 -20,-7 0,14 3,23 7,33z"/>
   <path class="fil12" d="M1726 52c1,13 -1,29 -4,40 -2,6 -4,11 -5,17 -2,5 -3,13 -6,17 0,8 -6,21 -5,30 0,1 7,17 9,21 1,4 2,8 3,12 1,4 1,11 3,13l1 -1c-1,-2 0,1 0,-1 -2,-9 4,-52 6,-58 2,-12 7,-25 10,-37 2,-6 4,-12 5,-18 0,-4 2,-20 3,-21l0 -36 -20 0 0 22z"/>
   <path class="fil13" d="M1767 96c-2,4 -7,10 -9,13 -3,2 -4,3 -6,5l-22 25c-1,2 -2,2 -2,3 -2,6 -8,49 -6,58 0,2 -1,-1 0,1l1 -1c3,-25 16,-42 32,-59 2,-3 3,-4 5,-6 7,-9 15,-15 23,-27 2,-4 2,-5 4,-6 0,-3 2,-5 3,-7 3,-10 4,-15 4,-26l-19 0c0,9 -4,22 -8,27z"/>
   <path class="fil8" d="M1728 142c0,-1 1,-1 2,-3l22 -25c2,-2 3,-3 6,-5 2,-3 7,-9 9,-13 -2,-2 -2,-6 -4,-9 -4,-8 -10,-16 -17,-21 -1,1 -3,17 -3,21 -1,6 -3,12 -5,18 -3,12 -8,25 -10,37z"/>
   <path class="fil8" d="M1711 126c3,-4 4,-12 6,-17 1,-6 3,-11 5,-17 3,-11 5,-27 4,-40 -2,0 -5,-2 -7,-2 -2,-1 -6,-2 -8,-3l0 79z"/>
  </g>
 </g>
</svg>
