<svg width="774" height="738" viewBox="0 0 774 738" fill="none" xmlns="http://www.w3.org/2000/svg">
<g style="mix-blend-mode:overlay">
<path d="M771.098 295.358C770.433 295.545 769.725 295.507 769.084 295.248C768.443 294.99 767.906 294.527 767.557 293.931C767.208 293.335 767.066 292.64 767.154 291.955C767.241 291.27 767.554 290.633 768.042 290.144C768.531 289.656 769.168 289.343 769.853 289.255C770.538 289.167 771.233 289.308 771.829 289.658C772.425 290.007 772.889 290.544 773.147 291.185C773.405 291.825 773.444 292.533 773.256 293.198C773.111 293.713 772.836 294.181 772.459 294.559C772.081 294.937 771.612 295.212 771.098 295.358Z" fill="#82B1FF"/>
<path d="M650.465 143.212C649.8 143.399 649.091 143.361 648.451 143.102C647.81 142.844 647.273 142.38 646.924 141.784C646.575 141.188 646.433 140.493 646.522 139.807C646.61 139.122 646.923 138.486 647.411 137.997C647.9 137.509 648.537 137.196 649.222 137.109C649.907 137.021 650.602 137.163 651.198 137.512C651.794 137.862 652.258 138.399 652.516 139.04C652.774 139.681 652.812 140.389 652.624 141.054C652.478 141.568 652.204 142.037 651.826 142.414C651.448 142.792 650.979 143.067 650.465 143.212Z" fill="#82B1FF"/>
<path d="M585.018 120.948C584.353 121.136 583.645 121.098 583.004 120.84C582.363 120.582 581.826 120.118 581.476 119.522C581.127 118.926 580.985 118.231 581.073 117.546C581.16 116.861 581.473 116.224 581.961 115.735C582.45 115.247 583.086 114.934 583.771 114.846C584.457 114.757 585.152 114.899 585.748 115.248C586.344 115.597 586.808 116.134 587.066 116.775C587.325 117.415 587.363 118.124 587.176 118.789C587.031 119.303 586.756 119.772 586.378 120.15C586.001 120.528 585.532 120.802 585.018 120.948Z" fill="#82B1FF"/>
<path d="M415.507 364.69C414.55 365.067 413.504 365.155 412.497 364.946C411.489 364.736 410.566 364.237 409.838 363.509C409.111 362.782 408.612 361.858 408.402 360.851C408.192 359.844 408.281 358.798 408.657 357.84C408.907 357.17 409.298 356.562 409.803 356.056C410.309 355.551 410.917 355.16 411.587 354.91C412.545 354.534 413.591 354.445 414.598 354.655C415.605 354.864 416.529 355.364 417.257 356.091C417.984 356.818 418.483 357.742 418.693 358.749C418.903 359.756 418.814 360.803 418.437 361.76C418.188 362.43 417.797 363.039 417.291 363.544C416.786 364.05 416.177 364.441 415.507 364.69Z" fill="#82B1FF"/>
<path d="M541.258 255.452C540.3 255.829 539.254 255.918 538.247 255.708C537.24 255.498 536.316 254.999 535.589 254.272C534.861 253.544 534.362 252.62 534.152 251.613C533.942 250.606 534.031 249.56 534.408 248.602C534.657 247.932 535.048 247.324 535.554 246.818C536.059 246.313 536.668 245.922 537.338 245.672C538.295 245.296 539.342 245.207 540.349 245.417C541.356 245.627 542.28 246.126 543.007 246.853C543.734 247.581 544.233 248.505 544.443 249.512C544.653 250.519 544.564 251.565 544.188 252.522C543.938 253.192 543.547 253.801 543.042 254.306C542.536 254.812 541.928 255.203 541.258 255.452Z" fill="#82B1FF"/>
<path d="M515.235 32.4563C514.57 32.6438 513.862 32.6054 513.221 32.3472C512.58 32.0891 512.043 31.6257 511.694 31.0297C511.344 30.4337 511.203 29.7386 511.291 29.0534C511.378 28.3682 511.691 27.7315 512.18 27.243C512.668 26.7545 513.305 26.4417 513.99 26.3537C514.675 26.2657 515.37 26.4074 515.966 26.7566C516.562 27.1058 517.026 27.6428 517.284 28.2836C517.542 28.9243 517.581 29.6326 517.393 30.2976C517.248 30.8118 516.973 31.2802 516.595 31.6582C516.217 32.0361 515.749 32.3109 515.235 32.4563Z" fill="#82B1FF"/>
<path d="M539.675 89.1351C539.01 89.3222 538.302 89.2836 537.661 89.0252C537.02 88.7668 536.483 88.3033 536.134 87.7071C535.785 87.111 535.644 86.416 535.732 85.7308C535.82 85.0457 536.133 84.4091 536.622 83.9207C537.11 83.4324 537.747 83.1199 538.432 83.0321C539.117 82.9443 539.812 83.0862 540.408 83.4356C541.004 83.785 541.467 84.3221 541.725 84.9629C541.983 85.6037 542.022 86.312 541.834 86.9769C541.689 87.4911 541.414 87.9595 541.036 88.3373C540.658 88.7151 540.189 88.9898 539.675 89.1351Z" fill="#82B1FF"/>
<path d="M603.736 290.249C603.071 290.436 602.362 290.398 601.722 290.14C601.081 289.882 600.544 289.419 600.194 288.823C599.845 288.227 599.703 287.532 599.791 286.846C599.879 286.161 600.192 285.524 600.68 285.036C601.169 284.547 601.805 284.235 602.49 284.146C603.176 284.058 603.871 284.2 604.467 284.549C605.063 284.898 605.526 285.435 605.785 286.076C606.043 286.717 606.081 287.425 605.894 288.09C605.749 288.604 605.474 289.073 605.096 289.451C604.718 289.829 604.25 290.104 603.736 290.249Z" fill="#82B1FF"/>
<path d="M678.071 487.559C677.406 487.746 676.697 487.707 676.057 487.449C675.416 487.19 674.879 486.727 674.53 486.131C674.181 485.534 674.04 484.839 674.128 484.154C674.216 483.469 674.529 482.833 675.018 482.344C675.507 481.856 676.143 481.544 676.829 481.456C677.514 481.368 678.209 481.51 678.805 481.86C679.401 482.209 679.864 482.746 680.122 483.387C680.38 484.028 680.418 484.736 680.23 485.401C680.085 485.915 679.81 486.384 679.432 486.761C679.053 487.139 678.585 487.414 678.071 487.559Z" fill="#82B1FF"/>
<path d="M564.482 682.005C563.817 682.192 563.109 682.154 562.468 681.895C561.828 681.637 561.291 681.174 560.941 680.578C560.592 679.982 560.451 679.286 560.539 678.601C560.627 677.916 560.94 677.279 561.428 676.791C561.917 676.303 562.553 675.99 563.239 675.902C563.924 675.814 564.619 675.956 565.215 676.305C565.811 676.655 566.274 677.192 566.532 677.833C566.79 678.473 566.829 679.182 566.641 679.847C566.496 680.361 566.221 680.829 565.843 681.207C565.465 681.585 564.997 681.86 564.482 682.005Z" fill="#82B1FF"/>
<path d="M534.372 564.677C533.708 564.865 532.999 564.827 532.358 564.569C531.718 564.311 531.18 563.848 530.831 563.252C530.481 562.656 530.339 561.961 530.427 561.276C530.515 560.59 530.827 559.953 531.316 559.465C531.804 558.976 532.44 558.663 533.126 558.575C533.811 558.487 534.506 558.628 535.102 558.977C535.698 559.326 536.162 559.863 536.42 560.504C536.679 561.144 536.717 561.853 536.53 562.518C536.385 563.032 536.111 563.5 535.733 563.879C535.355 564.257 534.887 564.532 534.372 564.677Z" fill="#82B1FF"/>
<path d="M382.517 188.166C381.852 188.354 381.144 188.315 380.503 188.057C379.862 187.799 379.325 187.335 378.976 186.739C378.627 186.143 378.485 185.448 378.573 184.763C378.661 184.078 378.974 183.441 379.462 182.952C379.951 182.464 380.588 182.151 381.273 182.063C381.958 181.975 382.653 182.117 383.249 182.467C383.845 182.816 384.309 183.353 384.567 183.994C384.825 184.635 384.863 185.343 384.676 186.008C384.53 186.522 384.255 186.991 383.878 187.368C383.5 187.746 383.031 188.021 382.517 188.166Z" fill="#82B1FF"/>
<path d="M2.564 295.358C3.2289 295.545 3.9372 295.507 4.57799 295.248C5.21877 294.99 5.75587 294.527 6.10519 293.931C6.45451 293.335 6.59631 292.64 6.50843 291.955C6.42055 291.27 6.10792 290.633 5.61951 290.144C5.13109 289.656 4.49445 289.343 3.80926 289.255C3.12408 289.167 2.42902 289.308 1.83294 289.658C1.23685 290.007 0.773407 290.544 0.515108 291.185C0.25681 291.825 0.218244 292.533 0.405498 293.198C0.550863 293.713 0.825583 294.181 1.20345 294.559C1.58131 294.937 2.04973 295.212 2.564 295.358Z" fill="#82B1FF"/>
<path d="M123.197 143.212C123.862 143.399 124.571 143.361 125.212 143.102C125.852 142.844 126.389 142.38 126.738 141.784C127.087 141.188 127.229 140.493 127.141 139.808C127.053 139.122 126.74 138.486 126.251 137.997C125.762 137.509 125.125 137.197 124.44 137.109C123.755 137.021 123.06 137.163 122.464 137.512C121.868 137.862 121.405 138.399 121.147 139.04C120.889 139.681 120.851 140.389 121.038 141.054C121.184 141.568 121.459 142.037 121.837 142.414C122.215 142.792 122.683 143.067 123.197 143.212Z" fill="#82B1FF"/>
<path d="M188.644 120.948C189.309 121.136 190.017 121.098 190.658 120.84C191.299 120.582 191.836 120.118 192.186 119.522C192.535 118.926 192.677 118.231 192.589 117.546C192.502 116.861 192.189 116.224 191.701 115.735C191.213 115.247 190.576 114.934 189.891 114.846C189.206 114.757 188.51 114.899 187.914 115.248C187.318 115.597 186.854 116.134 186.596 116.775C186.338 117.415 186.299 118.124 186.486 118.789C186.631 119.303 186.906 119.772 187.284 120.15C187.662 120.528 188.13 120.802 188.644 120.948Z" fill="#82B1FF"/>
<path d="M358.155 364.69C359.112 365.066 360.159 365.155 361.166 364.946C362.173 364.736 363.097 364.237 363.824 363.509C364.551 362.782 365.051 361.858 365.26 360.851C365.47 359.844 365.381 358.798 365.005 357.84C364.755 357.17 364.365 356.562 363.859 356.056C363.353 355.551 362.745 355.16 362.075 354.91C361.117 354.534 360.071 354.445 359.064 354.655C358.057 354.864 357.133 355.364 356.406 356.091C355.678 356.818 355.179 357.742 354.969 358.749C354.76 359.756 354.848 360.803 355.225 361.76C355.474 362.43 355.865 363.039 356.371 363.544C356.876 364.05 357.485 364.44 358.155 364.69Z" fill="#82B1FF"/>
<path d="M232.404 255.452C233.362 255.829 234.408 255.918 235.415 255.708C236.422 255.498 237.346 254.999 238.073 254.272C238.801 253.544 239.3 252.62 239.51 251.613C239.72 250.606 239.631 249.56 239.254 248.602C239.005 247.932 238.614 247.324 238.108 246.818C237.603 246.313 236.994 245.922 236.324 245.672C235.367 245.296 234.321 245.207 233.314 245.417C232.307 245.627 231.383 246.126 230.655 246.853C229.928 247.581 229.429 248.504 229.219 249.512C229.009 250.519 229.098 251.565 229.474 252.522C229.724 253.192 230.115 253.801 230.62 254.306C231.126 254.812 231.734 255.203 232.404 255.452Z" fill="#82B1FF"/>
<path d="M258.428 32.4563C259.093 32.6436 259.801 32.6052 260.442 32.347C261.082 32.0887 261.619 31.6253 261.969 31.0293C262.318 30.4333 262.46 29.7382 262.372 29.053C262.284 28.3678 261.971 27.7311 261.482 27.2427C260.994 26.7542 260.357 26.4415 259.672 26.3535C258.987 26.2656 258.292 26.4073 257.696 26.7565C257.1 27.1058 256.636 27.6428 256.378 28.2835C256.12 28.9243 256.082 29.6326 256.269 30.2975C256.414 30.8118 256.689 31.2803 257.067 31.6582C257.445 32.0361 257.913 32.3109 258.428 32.4563Z" fill="#82B1FF"/>
<path d="M233.987 89.1351C234.652 89.3222 235.36 89.2836 236.001 89.0252C236.642 88.7668 237.179 88.3033 237.528 87.7071C237.877 87.111 238.018 86.416 237.93 85.7308C237.842 85.0457 237.529 84.4091 237.041 83.9207C236.552 83.4324 235.915 83.1199 235.23 83.0321C234.545 82.9443 233.85 83.0862 233.254 83.4356C232.658 83.785 232.195 84.3221 231.937 84.9629C231.679 85.6037 231.64 86.312 231.828 86.9769C231.973 87.4911 232.248 87.9595 232.626 88.3373C233.004 88.7151 233.473 88.9898 233.987 89.1351Z" fill="#82B1FF"/>
<path d="M169.927 290.249C170.591 290.436 171.3 290.398 171.941 290.14C172.581 289.882 173.118 289.419 173.468 288.823C173.817 288.227 173.959 287.532 173.871 286.846C173.783 286.161 173.471 285.524 172.982 285.036C172.494 284.547 171.857 284.235 171.172 284.146C170.487 284.058 169.792 284.2 169.196 284.549C168.599 284.898 168.136 285.435 167.878 286.076C167.619 286.717 167.581 287.425 167.768 288.09C167.913 288.604 168.188 289.073 168.566 289.451C168.944 289.829 169.412 290.104 169.927 290.249Z" fill="#82B1FF"/>
<path d="M95.5916 487.559C96.2566 487.746 96.9649 487.708 97.6055 487.449C98.2462 487.191 98.7831 486.727 99.1321 486.131C99.4812 485.535 99.6226 484.84 99.5344 484.155C99.4462 483.47 99.1333 482.833 98.6447 482.345C98.1561 481.856 97.5193 481.544 96.8341 481.456C96.1489 481.368 95.4539 481.51 94.858 481.86C94.2621 482.209 93.7989 482.746 93.5409 483.387C93.2829 484.028 93.2447 484.736 93.4323 485.401C93.5779 485.915 93.8528 486.384 94.2309 486.761C94.6089 487.139 95.0773 487.414 95.5916 487.559Z" fill="#82B1FF"/>
<path d="M209.18 682.005C209.845 682.192 210.553 682.154 211.194 681.895C211.835 681.637 212.371 681.174 212.721 680.578C213.07 679.982 213.211 679.286 213.123 678.601C213.035 677.916 212.723 677.279 212.234 676.791C211.745 676.303 211.109 675.99 210.423 675.902C209.738 675.814 209.043 675.956 208.447 676.305C207.851 676.655 207.388 677.192 207.13 677.833C206.872 678.473 206.833 679.182 207.021 679.847C207.166 680.361 207.441 680.829 207.819 681.207C208.197 681.585 208.666 681.86 209.18 682.005Z" fill="#82B1FF"/>
<path d="M239.29 564.677C239.955 564.865 240.663 564.827 241.304 564.569C241.945 564.311 242.482 563.848 242.831 563.252C243.181 562.656 243.323 561.961 243.235 561.276C243.147 560.59 242.835 559.954 242.347 559.465C241.858 558.976 241.222 558.663 240.537 558.575C239.851 558.487 239.156 558.628 238.56 558.977C237.964 559.326 237.5 559.863 237.242 560.504C236.983 561.144 236.945 561.853 237.132 562.518C237.277 563.032 237.552 563.5 237.929 563.879C238.307 564.257 238.775 564.532 239.29 564.677Z" fill="#82B1FF"/>
<path d="M391.145 188.166C391.81 188.354 392.519 188.315 393.159 188.057C393.8 187.799 394.337 187.335 394.686 186.739C395.036 186.143 395.177 185.448 395.089 184.763C395.001 184.078 394.689 183.441 394.2 182.952C393.711 182.464 393.075 182.151 392.39 182.063C391.704 181.975 391.009 182.117 390.413 182.467C389.817 182.816 389.354 183.353 389.096 183.994C388.837 184.635 388.799 185.343 388.987 186.008C389.132 186.522 389.407 186.991 389.785 187.368C390.163 187.746 390.631 188.021 391.145 188.166Z" fill="#82B1FF"/>
</g>
<path style="mix-blend-mode:lighten" d="M379.731 665.391C537.257 665.391 664.957 537.691 664.957 380.164C664.957 222.638 537.257 94.9377 379.731 94.9377C222.205 94.9377 94.5043 222.638 94.5043 380.164C94.5043 537.691 222.205 665.391 379.731 665.391Z" fill="url(#paint0_radial_3_1808)"/>
<g style="mix-blend-mode:lighten">
<path d="M379.731 599.066C500.627 599.066 598.632 501.06 598.632 380.164C598.632 259.268 500.627 161.263 379.731 161.263C258.835 161.263 160.829 259.268 160.829 380.164C160.829 501.06 258.835 599.066 379.731 599.066Z" fill="url(#paint1_radial_3_1808)" style="mix-blend-mode:luminosity"/>
</g>
<path d="M379.731 551.227C474.206 551.227 550.793 474.639 550.793 380.164C550.793 285.689 474.206 209.102 379.731 209.102C285.256 209.102 208.669 285.689 208.669 380.164C208.669 474.639 285.256 551.227 379.731 551.227Z" fill="url(#paint2_linear_3_1808)"/>
<path style="mix-blend-mode:multiply" d="M379.731 209.102C345.898 209.102 312.825 219.135 284.694 237.931C256.563 256.728 234.637 283.444 221.69 314.702C208.743 345.959 205.355 380.354 211.956 413.537C218.556 446.72 234.848 477.2 258.772 501.124C282.695 525.047 313.175 541.339 346.358 547.94C379.541 554.54 413.936 551.153 445.194 538.205C476.451 525.258 503.167 503.332 521.964 475.201C540.761 447.07 550.793 413.997 550.793 380.164C550.793 357.7 546.369 335.456 537.772 314.702C529.175 293.947 516.575 275.09 500.69 259.205C484.806 243.32 465.948 230.72 445.194 222.123C424.439 213.527 402.195 209.102 379.731 209.102ZM379.731 538.112C348.492 538.112 317.954 528.848 291.98 511.493C266.006 494.137 245.761 469.469 233.806 440.608C221.852 411.747 218.724 379.989 224.818 349.35C230.913 318.711 245.956 290.568 268.045 268.479C290.135 246.389 318.278 231.346 348.917 225.252C379.556 219.157 411.314 222.285 440.175 234.24C469.036 246.195 493.704 266.439 511.059 292.413C528.415 318.388 537.678 348.925 537.678 380.164C537.678 422.055 521.037 462.229 491.417 491.85C461.796 521.471 421.621 538.112 379.731 538.112Z" fill="url(#paint3_linear_3_1808)"/>
<g style="mix-blend-mode:multiply" opacity="0.75">
<path d="M381.403 539.881C468.819 539.881 539.683 469.017 539.683 381.602C539.683 294.186 468.819 223.322 381.403 223.322C293.988 223.322 223.123 294.186 223.123 381.602C223.123 469.017 293.988 539.881 381.403 539.881Z" stroke="#6D521B" stroke-width="2.88028" stroke-miterlimit="10"/>
</g>
<path d="M379.966 538.444C467.381 538.444 538.246 467.58 538.246 380.164C538.246 292.749 467.381 221.884 379.966 221.884C292.55 221.884 221.686 292.749 221.686 380.164C221.686 467.58 292.55 538.444 379.966 538.444Z" stroke="#FFD98D" stroke-width="2.88028" stroke-miterlimit="10"/>
<path d="M379.966 550.668C474.133 550.668 550.47 474.331 550.47 380.164C550.47 285.998 474.133 209.66 379.966 209.66C285.799 209.66 209.462 285.998 209.462 380.164C209.462 474.331 285.799 550.668 379.966 550.668Z" stroke="#FFD98D" stroke-width="2.88028" stroke-miterlimit="10"/>
<g style="mix-blend-mode:multiply" opacity="0.75">
<path d="M381.403 525.25C460.738 525.25 525.052 460.937 525.052 381.602C525.052 302.266 460.738 237.953 381.403 237.953C302.068 237.953 237.754 302.266 237.754 381.602C237.754 460.937 302.068 525.25 381.403 525.25Z" stroke="#6D521B" stroke-width="17.2817" stroke-miterlimit="10" stroke-dasharray="2.9 8.69"/>
</g>
<path d="M379.966 523.813C459.301 523.813 523.615 459.499 523.615 380.164C523.615 300.829 459.301 236.515 379.966 236.515C300.631 236.515 236.317 300.829 236.317 380.164C236.317 459.499 300.631 523.813 379.966 523.813Z" stroke="#FFD98D" stroke-width="17.2817" stroke-miterlimit="10" stroke-dasharray="2.9 8.69"/>
<mask id="mask0_3_1808" style="mask-type:luminance" maskUnits="userSpaceOnUse" x="258" y="403" width="245" height="127">
<path d="M502.478 403.459H258.171V529.704H502.478V403.459Z" fill="white"/>
</mask>
<g mask="url(#mask0_3_1808)">
<path d="M379.731 499.9C445.863 499.9 499.474 446.289 499.474 380.156C499.474 314.024 445.863 260.412 379.731 260.412C313.598 260.412 259.987 314.024 259.987 380.156C259.987 446.289 313.598 499.9 379.731 499.9Z" stroke="#FFD98D" stroke-width="2.88028" stroke-miterlimit="10"/>
<path d="M379.731 494.457C442.857 494.457 494.032 443.283 494.032 380.156C494.032 317.03 442.857 265.855 379.731 265.855C316.604 265.855 265.43 317.03 265.43 380.156C265.43 443.283 316.604 494.457 379.731 494.457Z" stroke="#FFD98D" stroke-width="2.88028" stroke-miterlimit="10"/>
<path d="M379.731 489.014C439.851 489.014 488.589 440.277 488.589 380.156C488.589 320.036 439.851 271.298 379.731 271.298C319.61 271.298 270.873 320.036 270.873 380.156C270.873 440.277 319.61 489.014 379.731 489.014Z" stroke="#FFD98D" stroke-width="2.88028" stroke-miterlimit="10"/>
<path d="M403.861 480.717C459.399 467.39 493.618 411.564 480.291 356.026C466.964 300.488 411.138 266.269 355.6 279.596C300.062 292.923 265.843 348.749 279.17 404.287C292.497 459.825 348.323 494.044 403.861 480.717Z" stroke="#FFD98D" stroke-width="2.88028" stroke-miterlimit="10"/>
<path d="M475.003 402.998C487.618 350.38 455.189 297.499 402.572 284.884C349.955 272.269 297.073 304.697 284.458 357.315C271.843 409.932 304.272 462.813 356.889 475.428C409.506 488.043 462.388 455.615 475.003 402.998Z" stroke="#FFD98D" stroke-width="2.88028" stroke-miterlimit="10"/>
<path d="M465.496 414.882C484.675 367.515 461.823 313.569 414.456 294.39C367.089 275.212 313.143 298.063 293.965 345.431C274.786 392.798 297.638 446.744 345.005 465.922C392.372 485.1 446.318 462.249 465.496 414.882Z" stroke="#FFD98D" stroke-width="2.88028" stroke-miterlimit="10"/>
<path d="M379.731 467.242C427.827 467.242 466.817 428.253 466.817 380.156C466.817 332.06 427.827 293.07 379.731 293.07C331.634 293.07 292.645 332.06 292.645 380.156C292.645 428.253 331.634 467.242 379.731 467.242Z" stroke="#FFD98D" stroke-width="2.88028" stroke-miterlimit="10"/>
<path d="M379.731 461.8C424.821 461.8 461.374 425.247 461.374 380.156C461.374 335.066 424.821 298.513 379.731 298.513C334.64 298.513 298.087 335.066 298.087 380.156C298.087 425.247 334.64 461.8 379.731 461.8Z" stroke="#FFD98D" stroke-width="2.88028" stroke-miterlimit="10"/>
<path d="M379.731 456.357C421.815 456.357 455.931 422.241 455.931 380.156C455.931 338.072 421.815 303.956 379.731 303.956C337.646 303.956 303.53 338.072 303.53 380.156C303.53 422.241 337.646 456.357 379.731 456.357Z" stroke="#FFD98D" stroke-width="2.88028" stroke-miterlimit="10"/>
</g>
<mask id="mask1_3_1808" style="mask-type:luminance" maskUnits="userSpaceOnUse" x="248" y="232" width="265" height="127">
<path d="M512.254 232.638H248.395V358.883H512.254V232.638Z" fill="white"/>
</mask>
<g mask="url(#mask1_3_1808)">
<path d="M379.731 499.9C445.863 499.9 499.474 446.289 499.474 380.156C499.474 314.024 445.863 260.412 379.731 260.412C313.598 260.412 259.987 314.024 259.987 380.156C259.987 446.289 313.598 499.9 379.731 499.9Z" stroke="#FFD98D" stroke-width="2.88028" stroke-miterlimit="10"/>
<path d="M379.731 494.457C442.857 494.457 494.032 443.283 494.032 380.156C494.032 317.03 442.857 265.855 379.731 265.855C316.604 265.855 265.43 317.03 265.43 380.156C265.43 443.283 316.604 494.457 379.731 494.457Z" stroke="#FFD98D" stroke-width="2.88028" stroke-miterlimit="10"/>
<path d="M379.731 489.014C439.851 489.014 488.589 440.277 488.589 380.156C488.589 320.036 439.851 271.298 379.731 271.298C319.61 271.298 270.873 320.036 270.873 380.156C270.873 440.277 319.61 489.014 379.731 489.014Z" stroke="#FFD98D" stroke-width="2.88028" stroke-miterlimit="10"/>
<path d="M403.861 480.717C459.399 467.39 493.618 411.564 480.291 356.026C466.964 300.488 411.138 266.269 355.6 279.596C300.062 292.923 265.843 348.749 279.17 404.287C292.497 459.825 348.323 494.044 403.861 480.717Z" stroke="#FFD98D" stroke-width="2.88028" stroke-miterlimit="10"/>
<path d="M475.003 402.998C487.618 350.38 455.189 297.499 402.572 284.884C349.955 272.269 297.073 304.697 284.458 357.315C271.843 409.932 304.272 462.813 356.889 475.428C409.506 488.043 462.388 455.615 475.003 402.998Z" stroke="#FFD98D" stroke-width="2.88028" stroke-miterlimit="10"/>
<path d="M465.496 414.882C484.675 367.515 461.823 313.569 414.456 294.39C367.089 275.212 313.143 298.063 293.965 345.431C274.786 392.798 297.638 446.744 345.005 465.922C392.372 485.1 446.318 462.249 465.496 414.882Z" stroke="#FFD98D" stroke-width="2.88028" stroke-miterlimit="10"/>
<path d="M379.731 467.242C427.827 467.242 466.817 428.253 466.817 380.156C466.817 332.06 427.827 293.07 379.731 293.07C331.635 293.07 292.645 332.06 292.645 380.156C292.645 428.253 331.635 467.242 379.731 467.242Z" stroke="#FFD98D" stroke-width="2.88028" stroke-miterlimit="10"/>
<path d="M379.731 461.8C424.821 461.8 461.374 425.247 461.374 380.156C461.374 335.066 424.821 298.513 379.731 298.513C334.64 298.513 298.087 335.066 298.087 380.156C298.087 425.247 334.64 461.8 379.731 461.8Z" stroke="#FFD98D" stroke-width="2.88028" stroke-miterlimit="10"/>
<path d="M379.731 456.357C421.815 456.357 455.931 422.241 455.931 380.156C455.931 338.072 421.815 303.956 379.731 303.956C337.647 303.956 303.53 338.072 303.53 380.156C303.53 422.241 337.647 456.357 379.731 456.357Z" stroke="#FFD98D" stroke-width="2.88028" stroke-miterlimit="10"/>
</g>
<path d="M249.618 365.533H302.219" stroke="#FFD98D" stroke-width="2.88028" stroke-miterlimit="10"/>
<path d="M249.618 372.849H307.858" stroke="#FFD98D" stroke-width="2.88028" stroke-miterlimit="10"/>
<path d="M249.618 380.164H314.672" stroke="#FFD98D" stroke-width="2.88028" stroke-miterlimit="10"/>
<path d="M249.618 387.48H307.858" stroke="#FFD98D" stroke-width="2.88028" stroke-miterlimit="10"/>
<path d="M249.618 394.795H302.219" stroke="#FFD98D" stroke-width="2.88028" stroke-miterlimit="10"/>
<path d="M510.314 394.795H459.692" stroke="#FFD98D" stroke-width="2.88028" stroke-miterlimit="10"/>
<path d="M510.314 387.48H454.265" stroke="#FFD98D" stroke-width="2.88028" stroke-miterlimit="10"/>
<path d="M510.314 380.164H447.707" stroke="#FFD98D" stroke-width="2.88028" stroke-miterlimit="10"/>
<path d="M510.314 372.849H454.265" stroke="#FFD98D" stroke-width="2.88028" stroke-miterlimit="10"/>
<path d="M510.314 365.533H459.692" stroke="#FFD98D" stroke-width="2.88028" stroke-miterlimit="10"/>
<g style="mix-blend-mode:multiply" opacity="0.75">
<path d="M381.403 511.95C453.392 511.95 511.751 453.591 511.751 381.602C511.751 309.612 453.392 251.254 381.403 251.254C309.414 251.254 251.055 309.612 251.055 381.602C251.055 453.591 309.414 511.95 381.403 511.95Z" stroke="#6D521B" stroke-width="2.88028" stroke-miterlimit="10"/>
</g>
<path d="M379.966 510.512C451.955 510.512 510.314 452.154 510.314 380.164C510.314 308.175 451.955 249.816 379.966 249.816C307.977 249.816 249.618 308.175 249.618 380.164C249.618 452.154 307.977 510.512 379.966 510.512Z" stroke="#FFD98D" stroke-width="2.88028" stroke-miterlimit="10"/>
<path style="mix-blend-mode:color-dodge" d="M307.858 542.698C329.551 542.698 347.137 469.929 347.137 380.164C347.137 290.399 329.551 217.63 307.858 217.63C286.166 217.63 268.58 290.399 268.58 380.164C268.58 469.929 286.166 542.698 307.858 542.698Z" fill="url(#paint4_radial_3_1808)"/>
<path style="mix-blend-mode:color-dodge" d="M262.014 469.143C283.707 469.143 301.292 429.306 301.292 380.164C301.292 331.023 283.707 291.186 262.014 291.186C240.321 291.186 222.736 331.023 222.736 380.164C222.736 429.306 240.321 469.143 262.014 469.143Z" fill="url(#paint5_radial_3_1808)"/>
<path style="mix-blend-mode:color-dodge" d="M351.4 640.357C362.766 627.576 317.038 568.359 249.264 508.093C181.49 447.827 117.335 409.332 105.97 422.114C94.6048 434.895 140.333 494.111 208.106 554.378C275.88 614.644 340.035 653.138 351.4 640.357Z" fill="url(#paint6_radial_3_1808)"/>
<path style="mix-blend-mode:color-dodge" d="M673.75 490.148C705.893 405.342 718.985 331.679 702.991 325.617C686.998 319.555 647.976 383.39 615.833 468.197C583.69 553.003 570.598 626.666 586.592 632.728C602.585 638.789 641.607 574.954 673.75 490.148Z" fill="url(#paint7_radial_3_1808)"/>
<defs>
<radialGradient id="paint0_radial_3_1808" cx="0" cy="0" r="1" gradientUnits="userSpaceOnUse" gradientTransform="translate(379.731 380.164) scale(285.227)">
<stop offset="0.69355"/>
<stop offset="0.7294" stop-color="#010204"/>
<stop offset="0.76755" stop-color="#050811"/>
<stop offset="0.80679" stop-color="#0B1126"/>
<stop offset="0.84678" stop-color="#141F44"/>
<stop offset="0.88735" stop-color="#20306B"/>
<stop offset="0.92841" stop-color="#2E459A"/>
<stop offset="0.96907" stop-color="#3E5DD0"/>
<stop offset="1" stop-color="#4C72FF"/>
</radialGradient>
<radialGradient id="paint1_radial_3_1808" cx="0" cy="0" r="1" gradientUnits="userSpaceOnUse" gradientTransform="translate(379.731 380.164) scale(218.901)">
<stop offset="0.69355"/>
<stop offset="0.73105" stop-color="#020004"/>
<stop offset="0.77096" stop-color="#070011"/>
<stop offset="0.812" stop-color="#100026"/>
<stop offset="0.85385" stop-color="#1D0044"/>
<stop offset="0.8963" stop-color="#2D006B"/>
<stop offset="0.93926" stop-color="#40009A"/>
<stop offset="0.98183" stop-color="#5700D0"/>
<stop offset="1" stop-color="#6200EA"/>
</radialGradient>
<linearGradient id="paint2_linear_3_1808" x1="258.772" y1="259.205" x2="500.69" y2="501.124" gradientUnits="userSpaceOnUse">
<stop stop-color="#FAD875"/>
<stop offset="0.35414" stop-color="#9F6D19"/>
<stop offset="0.72675" stop-color="#D3A84F"/>
<stop offset="0.79634" stop-color="#CB9E46"/>
<stop offset="0.91241" stop-color="#B4852F"/>
<stop offset="1" stop-color="#9F6D19"/>
</linearGradient>
<linearGradient id="paint3_linear_3_1808" x1="258.772" y1="259.205" x2="500.69" y2="501.124" gradientUnits="userSpaceOnUse">
<stop stop-color="#FAD875"/>
<stop offset="0.35414" stop-color="#9F6D19"/>
<stop offset="0.72675" stop-color="#D3A84F"/>
<stop offset="0.79634" stop-color="#CB9E46"/>
<stop offset="0.91241" stop-color="#B4852F"/>
<stop offset="1" stop-color="#9F6D19"/>
</linearGradient>
<radialGradient id="paint4_radial_3_1808" cx="0" cy="0" r="1" gradientUnits="userSpaceOnUse" gradientTransform="translate(307.858 380.164) rotate(180) scale(39.2805 162.525)">
<stop stop-color="#E98E00"/>
<stop offset="0.09703" stop-color="#BC7300"/>
<stop offset="0.21955" stop-color="#8B5500"/>
<stop offset="0.34522" stop-color="#603B00"/>
<stop offset="0.47172" stop-color="#3D2500"/>
<stop offset="0.59946" stop-color="#221500"/>
<stop offset="0.72885" stop-color="#0F0900"/>
<stop offset="0.86095" stop-color="#040200"/>
<stop offset="1"/>
</radialGradient>
<radialGradient id="paint5_radial_3_1808" cx="0" cy="0" r="1" gradientUnits="userSpaceOnUse" gradientTransform="translate(262.014 380.164) rotate(180) scale(39.2801 88.9741)">
<stop stop-color="#E98E00"/>
<stop offset="0.09703" stop-color="#BC7300"/>
<stop offset="0.21955" stop-color="#8B5500"/>
<stop offset="0.34522" stop-color="#603B00"/>
<stop offset="0.47172" stop-color="#3D2500"/>
<stop offset="0.59946" stop-color="#221500"/>
<stop offset="0.72885" stop-color="#0F0900"/>
<stop offset="0.86095" stop-color="#040200"/>
<stop offset="1"/>
</radialGradient>
<radialGradient id="paint6_radial_3_1808" cx="0" cy="0" r="1" gradientUnits="userSpaceOnUse" gradientTransform="translate(231.495 534.202) rotate(41.6467) scale(148.349 27.982)">
<stop stop-color="#EA80FC"/>
<stop offset="0.04689" stop-color="#D776E8"/>
<stop offset="0.19828" stop-color="#9F57AB"/>
<stop offset="0.34883" stop-color="#6E3C77"/>
<stop offset="0.49498" stop-color="#47274C"/>
<stop offset="0.63582" stop-color="#28162B"/>
<stop offset="0.76985" stop-color="#120A13"/>
<stop offset="0.89436" stop-color="#050305"/>
<stop offset="1"/>
</radialGradient>
<radialGradient id="paint7_radial_3_1808" cx="0" cy="0" r="1" gradientUnits="userSpaceOnUse" gradientTransform="translate(643.022 482.86) rotate(110.758) scale(148.371 27.9786)">
<stop stop-color="#FF80AB"/>
<stop offset="0.05328" stop-color="#E8749B"/>
<stop offset="0.20366" stop-color="#AB5673"/>
<stop offset="0.35325" stop-color="#773C50"/>
<stop offset="0.49836" stop-color="#4C2633"/>
<stop offset="0.63826" stop-color="#2B161D"/>
<stop offset="0.7714" stop-color="#130A0D"/>
<stop offset="0.89507" stop-color="#050203"/>
<stop offset="1"/>
</radialGradient>
</defs>
</svg>
